<?xml version="1.0" standalone="no"?>
<!DOCTYPE svg PUBLIC "-//W3C//DTD SVG 20010904//EN"
 "http://www.w3.org/TR/2001/REC-SVG-20010904/DTD/svg10.dtd">
<svg version="1.0" xmlns="http://www.w3.org/2000/svg"
 width="1000.000000pt" height="1000.000000pt" viewBox="0 0 1000.000000 1000.000000"
 preserveAspectRatio="xMidYMid meet">
<metadata>
Created by potrace 1.14, written by Peter Selinger 2001-2017
</metadata>
<g transform="translate(0.000000,1000.000000) scale(0.100000,-0.100000)"
fill="#000000" stroke="none">
<path d="M4927 9873 c-1 0 -33 -4 -72 -7 -38 -3 -81 -8 -95 -11 -14 -3 -37 -7
-51 -10 -66 -12 -220 -70 -299 -111 -131 -69 -254 -169 -359 -290 -43 -50
-134 -189 -154 -234 -8 -19 -23 -53 -33 -75 -10 -22 -18 -42 -19 -45 -1 -3
-11 -36 -23 -75 -51 -164 -63 -407 -27 -578 30 -148 98 -308 178 -427 33 -48
149 -189 169 -205 7 -6 38 -31 68 -56 283 -235 631 -318 1023 -244 65 13 211
66 287 106 349 181 586 522 638 914 13 99 4 358 -14 386 -2 4 -6 24 -10 45
-15 92 -99 284 -175 395 -36 53 -131 163 -184 213 -50 46 -167 128 -245 169
-153 82 -351 135 -525 140 -42 1 -77 1 -78 0z"/>
<path d="M1072 7650 c-109 -22 -185 -63 -268 -145 -304 -301 -144 -821 277
-900 32 -6 275 -63 319 -75 49 -13 538 -122 610 -136 14 -3 53 -11 86 -19 34
-8 73 -16 85 -19 13 -2 125 -25 249 -49 124 -25 252 -51 285 -57 33 -6 69 -13
80 -15 49 -10 374 -64 415 -70 25 -3 52 -8 60 -10 8 -2 40 -7 70 -10 30 -3 62
-8 70 -10 8 -2 38 -6 65 -10 28 -3 61 -8 75 -10 14 -2 70 -9 125 -16 55 -6
102 -16 105 -20 10 -15 -4 -685 -24 -1199 -4 -91 -9 -190 -11 -220 -2 -30 -7
-111 -11 -180 -4 -69 -8 -141 -9 -160 -7 -114 -17 -250 -21 -285 -9 -98 -14
-155 -19 -215 -6 -66 -14 -151 -21 -205 -2 -16 -6 -55 -9 -85 -7 -63 -44 -343
-50 -379 -2 -13 -7 -45 -11 -70 -4 -25 -8 -55 -10 -66 -3 -11 -7 -38 -10 -60
-12 -93 -98 -503 -139 -662 -94 -361 -180 -611 -423 -1229 -87 -220 -101 -277
-97 -391 14 -433 469 -703 862 -512 163 79 237 173 338 429 20 52 65 167 100
255 98 249 188 495 243 665 46 142 137 451 146 496 2 10 11 46 20 79 13 51 53
229 70 315 33 167 55 289 107 617 l12 71 158 0 158 -1 6 -41 c8 -51 12 -78 20
-136 3 -25 8 -52 10 -60 2 -8 6 -33 10 -55 3 -22 10 -69 16 -105 6 -36 12 -74
14 -85 1 -11 10 -57 20 -103 9 -45 18 -92 20 -105 3 -12 16 -74 31 -137 15
-63 29 -126 31 -140 6 -29 89 -341 103 -385 67 -214 113 -350 167 -500 93
-257 300 -781 331 -840 46 -84 155 -186 252 -233 47 -23 103 -45 125 -48 22
-3 43 -8 47 -10 10 -6 169 -5 203 1 223 42 402 205 470 425 23 77 28 211 9
290 -8 35 -44 139 -80 230 -223 559 -307 796 -395 1115 -27 100 -96 376 -102
411 -3 16 -17 85 -30 154 -14 69 -28 143 -31 165 -4 23 -9 52 -11 65 -6 30
-35 221 -41 270 -2 19 -6 46 -9 60 -5 29 -15 102 -20 145 -2 17 -6 57 -10 90
-3 33 -8 76 -10 95 -2 19 -7 60 -10 90 -3 30 -8 75 -10 100 -3 25 -7 77 -10
115 -3 39 -8 86 -10 105 -2 19 -7 82 -10 140 -4 57 -8 121 -10 141 -6 58 -19
299 -30 554 -3 88 -8 198 -10 245 -12 259 -23 970 -15 975 3 1 32 6 65 9 33 4
69 9 80 11 11 2 45 7 75 10 30 3 66 7 80 10 14 2 61 9 105 15 103 15 128 19
195 30 30 6 69 12 85 14 17 2 46 6 65 10 60 10 524 96 545 100 11 2 54 11 95
19 41 9 86 18 100 21 64 12 229 48 260 56 19 5 51 11 70 14 19 3 50 10 68 15
17 5 32 8 32 6 0 -3 11 0 26 5 14 6 39 12 57 16 18 3 109 23 202 45 94 22 251
58 350 80 210 48 270 69 345 119 229 155 302 469 165 706 -74 127 -227 237
-360 259 -47 7 -159 8 -195 0 -68 -13 -103 -21 -180 -40 -36 -9 -75 -19 -87
-21 -12 -2 -71 -16 -130 -30 -60 -14 -117 -27 -128 -30 -11 -2 -141 -31 -290
-64 -148 -32 -286 -62 -305 -65 -19 -3 -51 -10 -70 -15 -19 -5 -50 -12 -68
-15 -18 -3 -64 -12 -102 -20 -38 -8 -82 -17 -97 -20 -16 -2 -73 -13 -128 -24
-55 -11 -127 -25 -160 -30 -33 -6 -87 -15 -120 -21 -33 -6 -76 -13 -95 -16
-19 -3 -41 -7 -48 -9 -7 -3 -34 -7 -60 -10 -26 -4 -72 -10 -102 -15 -30 -5
-73 -12 -95 -15 -22 -3 -53 -7 -70 -10 -16 -3 -48 -7 -70 -10 -22 -3 -51 -8
-65 -10 -14 -3 -52 -7 -85 -10 -33 -4 -71 -8 -85 -10 -25 -4 -122 -14 -190
-20 -19 -2 -64 -6 -100 -9 -421 -42 -1121 -42 -1537 -1 -29 3 -79 7 -110 10
-32 3 -71 7 -88 10 -16 2 -61 7 -100 10 -38 4 -77 9 -85 10 -8 1 -40 6 -70 10
-30 3 -66 8 -80 10 -14 2 -45 7 -70 10 -25 3 -70 10 -100 15 -30 5 -71 12 -90
14 -59 8 -145 22 -186 30 -12 2 -39 7 -60 10 -37 6 -187 34 -229 42 -11 3 -36
7 -55 10 -19 3 -89 17 -155 30 -66 14 -136 27 -155 30 -19 3 -38 8 -41 10 -3
2 -21 6 -40 9 -47 8 -395 82 -499 106 -47 10 -132 30 -190 43 -58 13 -204 47
-325 75 -253 58 -297 63 -403 41z"/>
</g>
</svg>
